<svg width="25" height="24" viewBox="0 0 25 24" fill="none" xmlns="http://www.w3.org/2000/svg">
<path d="M6.03199 2C5.49875 2 4.98735 2.21071 4.61029 2.58579C4.23323 2.96086 4.0214 3.46957 4.0214 4C4.0214 4.53043 4.23323 5.03914 4.61029 5.41421C4.98735 5.78929 5.49875 6 6.03199 6C6.56523 6 7.07663 5.78929 7.45368 5.41421C7.83074 5.03914 8.04257 4.53043 8.04257 4C8.04257 3.46957 7.83074 2.96086 7.45368 2.58579C7.07663 2.21071 6.56523 2 6.03199 2ZM10.0532 3V5H19.1008V13H11.0584V15H19.6034C20.4348 15 21.1114 14.327 21.1114 13.5V4.5C21.1114 3.673 20.4348 3 19.6034 3H10.0532ZM5.0267 7C3.91585 7 3.01611 7.895 3.01611 9V15H9.04786V9H15.0796V7H9.04786H8.04257H5.0267ZM5.0267 9H7.03728V13H5.0267V9ZM6.03199 17C5.49875 17 4.98735 17.2107 4.61029 17.5858C4.23323 17.9609 4.0214 18.4696 4.0214 19C4.0214 19.5304 4.23323 20.0391 4.61029 20.4142C4.98735 20.7893 5.49875 21 6.03199 21C6.56523 21 7.07663 20.7893 7.45368 20.4142C7.83074 20.0391 8.04257 19.5304 8.04257 19C8.04257 18.4696 7.83074 17.9609 7.45368 17.5858C7.07663 17.2107 6.56523 17 6.03199 17ZM12.0637 17C11.5305 17 11.0191 17.2107 10.642 17.5858C10.265 17.9609 10.0532 18.4696 10.0532 19C10.0532 19.5304 10.265 20.0391 10.642 20.4142C11.0191 20.7893 11.5305 21 12.0637 21C12.597 21 13.1084 20.7893 13.4854 20.4142C13.8625 20.0391 14.0743 19.5304 14.0743 19C14.0743 18.4696 13.8625 17.9609 13.4854 17.5858C13.1084 17.2107 12.597 17 12.0637 17ZM18.0955 17C17.5622 17 17.0508 17.2107 16.6738 17.5858C16.2967 17.9609 16.0849 18.4696 16.0849 19C16.0849 19.5304 16.2967 20.0391 16.6738 20.4142C17.0508 20.7893 17.5622 21 18.0955 21C18.6287 21 19.1401 20.7893 19.5172 20.4142C19.8942 20.0391 20.1061 19.5304 20.1061 19C20.1061 18.4696 19.8942 17.9609 19.5172 17.5858C19.1401 17.2107 18.6287 17 18.0955 17Z" fill="white"/>
</svg>
