<svg width="65" height="64" viewBox="0 0 65 64" fill="none" xmlns="http://www.w3.org/2000/svg">
<path d="M8.5 8.00134H56.5V37.3347H8.5V8.00134Z" fill="#009688"/>
<path d="M52.5 13.3333V37.3333H12.5V13.3333H53.8333M56.5 10.6667H8.5V37.3333H56.5V10.6667Z" fill="#00796B"/>
<path d="M53.8333 10.6667V36H11.1667V10.6667H53.8333ZM56.5 8H8.5V37.3333H56.5V8Z" fill="#DD7C12"/>
<path d="M59.1667 41.3333V38.6667C59.1667 37.1947 57.972 36 56.5 36H9.83332C8.36132 36 7.16666 37.1947 7.16666 38.6667V41.3333H59.1667Z" fill="#773D04"/>
<path d="M47.1667 36H37.8333V33.3333H47.1667L48.5 34.6667L47.1667 36Z" fill="white"/>
<path d="M13.8333 20C10.892 20 8.50001 17.6067 8.50001 14.6667C8.50001 11.7253 10.892 9.33334 13.8333 9.33334C16.7747 9.33334 19.1667 11.7253 19.1667 14.6667C19.1667 17.6067 16.7747 20 13.8333 20ZM9.83334 45.3333L5.83334 42.6667V37.3333H9.83334V45.3333ZM37.864 22.6667L38.132 27.4667L33.864 30.6667L31.4653 27.4667L37.864 22.6667Z" fill="#FFB74D"/>
<path d="M10.1187 56.0013H20.1267L21.184 34.1267V30.6667L28.3093 35.236C28.6 35.348 29.8013 35.4 30.4373 34.9173L36.7987 29.6133L33.512 25.1627L28.7533 28.796C28.7533 28.796 21.5667 23.1413 20.2507 22.3547C20.2133 22.3333 18.0413 21.3333 15.2707 21.3333C15.248 21.3333 15.2347 21.336 15.2133 21.336C15.1973 21.336 15.1827 21.3333 15.1667 21.3333C8.50001 21.3333 5.83334 24 5.83334 29.3333V40L9.33334 42.3333L10.1187 56.0013Z" fill="#455A64"/>
<path d="M17.8333 46C17.8333 47.84 16.3413 49.3333 14.5 49.3333C12.6587 49.3333 11.1667 47.84 11.1667 46C11.1667 44.1587 12.6587 42.6667 14.5 42.6667C16.3413 42.6667 17.8333 44.1587 17.8333 46ZM29.8333 46C29.8333 47.84 28.3413 49.3333 26.5 49.3333C24.6587 49.3333 23.1667 47.84 23.1667 46C23.1667 44.1587 24.6587 42.6667 26.5 42.6667C28.3413 42.6667 29.8333 44.1587 29.8333 46ZM41.8333 46C41.8333 47.84 40.3413 49.3333 38.5 49.3333C36.6587 49.3333 35.1667 47.84 35.1667 46C35.1667 44.1587 36.6587 42.6667 38.5 42.6667C40.3413 42.6667 41.8333 44.1587 41.8333 46ZM53.8333 46C53.8333 47.84 52.34 49.3333 50.5 49.3333C48.66 49.3333 47.1667 47.84 47.1667 46C47.1667 44.1587 48.66 42.6667 50.5 42.6667C52.34 42.6667 53.8333 44.1587 53.8333 46Z" fill="#FFA726"/>
<path d="M20.5 54.6667C20.5 54.6667 18.8387 50.6667 14.5 50.6667C10.1613 50.6667 8.5 54.6667 8.5 54.6667V56H20.5V54.6667ZM32.5 54.6667C32.5 54.6667 30.8387 50.6667 26.5 50.6667C22.1613 50.6667 20.5 54.6667 20.5 54.6667V56H32.5V54.6667ZM44.5 54.6667C44.5 54.6667 42.8387 50.6667 38.5 50.6667C34.1613 50.6667 32.5 54.6667 32.5 54.6667V56H44.5V54.6667ZM56.5 54.6667C56.5 54.6667 54.84 50.6667 50.5 50.6667C46.1613 50.6667 44.5 54.6667 44.5 54.6667V56H56.5V54.6667Z" fill="#607D8B"/>
</svg>
