<svg width="64" height="64" viewBox="0 0 64 64" fill="none" xmlns="http://www.w3.org/2000/svg">
<path d="M6.66663 50.6667V18.6667H57.3333V50.6667C57.3333 53.6 54.9333 56 52 56H12C9.06663 56 6.66663 53.6 6.66663 50.6667Z" fill="#CFD8DC"/>
<path d="M57.3333 13.3333V21.3333H6.66663V13.3333C6.66663 10.4 9.06663 8 12 8H52C54.9333 8 57.3333 10.4 57.3333 13.3333Z" fill="#F44336"/>
<path d="M44 9.33331C42.9391 9.33331 41.9217 9.75474 41.1716 10.5049C40.4214 11.255 40 12.2724 40 13.3333C40 14.3942 40.4214 15.4116 41.1716 16.1617C41.9217 16.9119 42.9391 17.3333 44 17.3333C45.0609 17.3333 46.0783 16.9119 46.8284 16.1617C47.5786 15.4116 48 14.3942 48 13.3333C48 12.2724 47.5786 11.255 46.8284 10.5049C46.0783 9.75474 45.0609 9.33331 44 9.33331ZM20 9.33331C18.9391 9.33331 17.9217 9.75474 17.1716 10.5049C16.4214 11.255 16 12.2724 16 13.3333C16 14.3942 16.4214 15.4116 17.1716 16.1617C17.9217 16.9119 18.9391 17.3333 20 17.3333C21.0609 17.3333 22.0783 16.9119 22.8284 16.1617C23.5786 15.4116 24 14.3942 24 13.3333C24 12.2724 23.5786 11.255 22.8284 10.5049C22.0783 9.75474 21.0609 9.33331 20 9.33331Z" fill="#B71C1C"/>
<path d="M44 4C42.5334 4 41.3334 5.2 41.3334 6.66667V13.3333C41.3334 14.8 42.5334 16 44 16C45.4667 16 46.6667 14.8 46.6667 13.3333V6.66667C46.6667 5.2 45.4667 4 44 4ZM20 4C18.5334 4 17.3334 5.2 17.3334 6.66667V13.3333C17.3334 14.8 18.5334 16 20 16C21.4667 16 22.6667 14.8 22.6667 13.3333V6.66667C22.6667 5.2 21.4667 4 20 4Z" fill="#B0BEC5"/>
<path d="M17.3334 28H25.3334V36H17.3334V28ZM28 28H36V36H28V28ZM38.6667 28H46.6667V36H38.6667V28ZM17.3334 38.6667H25.3334V46.6667H17.3334V38.6667ZM28 38.6667H36V46.6667H28V38.6667Z" fill="#B0BEC5"/>
<path d="M38.6666 38.6667H46.6666V46.6667H38.6666V38.6667Z" fill="#F44336"/>
</svg>
