<svg width="64" height="64" viewBox="0 0 64 64" fill="none" xmlns="http://www.w3.org/2000/svg">
<path d="M44.6667 12C43.429 12 42.242 12.4917 41.3668 13.3668C40.4917 14.242 40 15.429 40 16.6667C40 17.9043 40.4917 19.0913 41.3668 19.9665C42.242 20.8417 43.429 21.3333 44.6667 21.3333C45.9043 21.3333 47.0913 20.8417 47.9665 19.9665C48.8417 19.0913 49.3333 17.9043 49.3333 16.6667C49.3333 15.429 48.8417 14.242 47.9665 13.3668C47.0913 12.4917 45.9043 12 44.6667 12Z" fill="#FFB74D"/>
<path d="M44.7999 41.4667L39.0666 37.2L40 46.2667L36.3999 54.4C35.7333 55.8667 36.7999 57.4667 38.3999 57.4667C39.1999 57.4667 39.9999 56.9333 40.3999 56.2667L44.4 47.7333L44.7999 41.4667Z" fill="#546E7A"/>
<path d="M53.7334 54.4L49.7334 45.3333L45.7334 38.6667L47.0667 26.5333C47.3334 24.8 46.5334 23.3333 44.8 22.9333L43.4667 22.6667C42.2667 22.4 40.4 23.2 40.2667 25.3333L39.0667 36C38.9334 37.3333 39.2 38.6667 39.7334 39.7333L45.4667 47.3333L49.8667 56.2667C50.2667 56.9333 50.9334 57.4667 51.7334 57.4667C53.3334 57.3333 54.2667 55.7333 53.7334 54.4Z" fill="#607D8B"/>
<path d="M46.5333 29.6L45.7333 38.8C45.1999 38.4 43.2 27.2 43.2 27.2L46.5333 29.6Z" fill="#455A64"/>
<path d="M53.2471 37.1647L49.5137 33.0313L46.8471 25.0313C46.3137 24.098 45.2471 23.8313 44.3137 24.098C43.1137 24.6313 42.5804 26.098 43.3804 27.1647L46.7137 35.1647L50.7137 39.4313C51.3804 40.098 52.5804 40.2313 53.2471 39.4313C53.9137 38.898 53.9137 37.8313 53.2471 37.1647Z" fill="#607D8B"/>
<path d="M34.5333 24.8L32.5333 33.4667C32.1333 35.2 33.3333 36.9333 35.0666 37.2L39.3333 37.7333L41.0666 24.4C41.1999 23.6 40.6666 22.9333 39.8666 22.9333L37.1999 22.6667C35.8666 22.5333 34.7999 23.4667 34.5333 24.8Z" fill="#4DB6AC"/>
<path d="M21.3333 6.66669C19.9188 6.66669 18.5623 7.22859 17.5621 8.22878C16.5619 9.22898 16 10.5855 16 12C16 13.4145 16.5619 14.7711 17.5621 15.7713C18.5623 16.7715 19.9188 17.3334 21.3333 17.3334C22.7478 17.3334 24.1044 16.7715 25.1046 15.7713C26.1048 14.7711 26.6667 13.4145 26.6667 12C26.6667 10.5855 26.1048 9.22898 25.1046 8.22878C24.1044 7.22859 22.7478 6.66669 21.3333 6.66669Z" fill="#FFB74D"/>
<path d="M21.2001 39.7333L14.8001 34.9333L15.7334 44.9333L11.7334 54C11.0667 55.4667 12.2667 57.3333 14.0001 57.3333C14.9334 57.3333 15.7334 56.8 16.1334 56L20.5334 46.5334L21.2001 39.7333Z" fill="#546E7A"/>
<path d="M31.0667 54L26.6667 44L22.1334 36.6666L23.7334 23.0666C24.0001 21.2 23.0667 19.4666 21.2001 19.0666L19.7334 18.8C18.4001 18.5333 16.4001 19.3333 16.1334 21.7333L14.8001 33.6C14.6667 35.2 14.9334 36.5333 15.6001 37.7333L22.0001 46.1333L26.9334 56C27.3334 56.8 28.1334 57.3333 29.0667 57.3333C30.5334 57.3333 31.7334 55.6 31.0667 54Z" fill="#607D8B"/>
<path d="M23.0667 26.5333L22.1334 36.6667C21.4667 36.2667 19.3334 23.7333 19.3334 23.7333L23.0667 26.5333Z" fill="#455A64"/>
<path d="M30.6666 34.6667L26.5333 30L23.6 21.2C23.0666 20.2667 21.8666 19.8667 20.8 20.2667C19.4666 20.8 18.9333 22.4 19.7333 23.6L23.4666 32.5334L27.8666 37.3334C28.6666 38.1334 29.8666 38.1334 30.6666 37.3334C31.3333 36.5334 31.3333 35.4667 30.6666 34.6667Z" fill="#607D8B"/>
<path d="M10.1333 21.0667L7.73331 32.2667C7.46665 33.7333 8.39998 35.3333 9.99998 35.4667L14.8 36L16.8 20.6667C16.9333 19.8667 16.2666 19.2 15.6 19.2L12.9333 19.0667C11.6 18.8 10.4 19.7333 10.1333 21.0667Z" fill="#8BC34A"/>
</svg>
