<svg width="64" height="64" viewBox="0 0 64 64" fill="none" xmlns="http://www.w3.org/2000/svg">
<path d="M48 5.33331H34.6666C34.6666 6.80665 33.4733 7.99998 32 7.99998C30.5266 7.99998 29.3333 6.80665 29.3333 5.33331H16C13.052 5.33331 10.6666 7.71865 10.6666 10.6666V53.3333C10.6666 56.2813 13.052 58.6666 16 58.6666H48C50.948 58.6666 53.3333 56.2813 53.3333 53.3333V10.6666C53.3333 7.71865 50.948 5.33331 48 5.33331Z" fill="#6D4C41"/>
<path d="M48 54.6666H16C15.2653 54.6666 14.6666 54.068 14.6666 53.3333V10.6666C14.6666 9.93198 15.2653 9.33331 16 9.33331H48C48.7346 9.33331 49.3333 9.93198 49.3333 10.6666V53.3333C49.3333 54.068 48.7346 54.6666 48 54.6666Z" fill="white"/>
<path d="M34.6667 5.33331C34.6667 6.80665 33.4733 7.99998 32 7.99998C30.5267 7.99998 29.3333 6.80665 29.3333 5.33331H20V10.6666C20 12.14 21.1933 13.3333 22.6667 13.3333H41.3333C42.8067 13.3333 44 12.14 44 10.6666V5.33331H34.6667Z" fill="#90A4AE"/>
<path d="M32 0C29.0573 0 26.6666 2.39067 26.6666 5.33333C26.6666 8.276 29.0573 10.6667 32 10.6667C34.9426 10.6667 37.3333 8.276 37.3333 5.33333C37.3333 2.39067 34.9426 0 32 0ZM32 8C30.5266 8 29.3333 6.80667 29.3333 5.33333C29.3333 3.86 30.5266 2.66667 32 2.66667C33.4733 2.66667 34.6666 3.86 34.6666 5.33333C34.6666 6.80667 33.4733 8 32 8Z" fill="#90A4AE"/>
<path d="M41.144 21.7627L44.9027 25.5227C45.476 26.0947 45.476 27.024 44.9027 27.596L43.132 29.3667L37.2987 23.532L39.0694 21.7627C39.6427 21.1907 40.5707 21.1907 41.144 21.7627Z" fill="#E57373"/>
<path d="M20.6254 40.204L26.46 46.0387L40.2134 32.2854L34.3787 26.4507L20.6254 40.204Z" fill="#FF9800"/>
<path d="M34.3773 26.448L40.2107 32.2853L43.128 29.3693L37.2947 23.532L34.3773 26.448Z" fill="#B0BEC5"/>
<path d="M26.464 46.036L18.6666 48L20.6293 40.2026L26.464 46.036Z" fill="#FFC107"/>
<path d="M22.608 47.008L18.6666 48L19.6586 44.0587L22.608 47.008Z" fill="#37474F"/>
</svg>
